<svg version="1.1" id="Layer_1" xmlns="http://www.w3.org/2000/svg" xmlns:xlink="http://www.w3.org/1999/xlink" x="0px" y="0px"
	 width="100%" viewBox="0 0 480 280" enable-background="new 0 0 480 280" xml:space="preserve">
<path fill="#EBCBA3" opacity="1.000000" stroke="none" 
	d="
M344.000000,281.000000 
	C230.666687,281.000000 117.833351,280.980042 5.000158,281.095306 
	C1.576314,281.098785 0.899672,280.424286 0.904226,276.999939 
	C1.024788,186.333435 1.024780,95.666733 0.904250,5.000238 
	C0.899698,1.576275 1.575997,0.902863 4.999954,0.905237 
	C162.333176,1.014353 319.666504,1.014344 476.999756,0.905279 
	C480.423065,0.902906 481.100342,1.575337 481.095795,4.999929 
	C480.975220,95.666420 480.975220,186.333130 481.095703,276.999634 
	C481.100250,280.423309 480.426117,281.109558 476.999908,281.098053 
	C432.833679,280.949799 388.666748,281.000000 344.000000,281.000000 
z"/>
<path fill="#2E4555" opacity="1.000000" stroke="none" 
	d="
M142.874054,35.845970 
	C145.604172,38.115208 148.199692,39.867409 151.617035,40.866081 
	C152.059036,41.395744 152.324371,41.608528 152.940079,41.790588 
	C153.196991,41.870888 153.096893,41.889946 153.094513,41.839058 
	C153.178619,41.952274 153.265106,42.116379 153.628906,42.303379 
	C154.804001,42.969326 155.701797,43.612370 156.702850,44.512817 
	C157.055725,45.096867 157.343094,45.385368 157.937820,45.787201 
	C161.549896,48.372120 163.675278,51.492710 164.180573,55.716423 
	C164.528824,58.627579 165.995605,60.963512 168.877823,62.672249 
	C169.089935,63.363976 169.304535,63.597824 169.919983,63.821571 
	C170.479782,63.950222 170.739578,64.077972 171.000626,64.549469 
	C171.159882,64.925163 171.254166,65.086708 171.625336,65.293770 
	C173.404892,66.314194 174.765839,67.398895 174.980972,69.688240 
	C176.202271,73.767395 176.752258,77.712677 178.449493,81.675995 
	C179.994568,89.266495 177.190125,96.447609 178.073334,103.746727 
	C178.295761,105.584915 176.728195,107.179657 175.484375,108.215691 
	C170.550507,112.325333 167.950974,117.977745 164.874573,123.328896 
	C164.014099,124.825645 162.504074,124.931084 161.112671,125.443039 
	C158.032761,126.576271 154.511841,126.470818 151.512146,128.887131 
	C150.863098,129.224899 150.573074,129.448013 150.197510,129.971664 
	C148.248428,132.767120 146.212906,134.406479 142.838623,135.382278 
	C137.862411,136.821320 137.308105,142.443741 136.230835,146.656525 
	C134.123856,154.895950 136.282928,163.190002 137.521225,171.385132 
	C138.049255,174.879623 140.752457,177.426926 142.875549,180.556946 
	C149.734619,182.303696 156.497437,181.177765 163.602875,181.213791 
	C168.900955,179.824127 173.899292,180.406006 178.836945,180.510513 
	C214.861404,181.272919 250.821381,179.383514 286.796234,178.089081 
	C295.580231,177.773026 304.362213,177.399490 313.585266,177.140015 
	C318.422974,178.671371 322.882172,178.011459 327.654724,177.423096 
	C352.128815,177.675064 376.295410,177.928711 400.221252,182.376526 
	C381.816711,186.007339 363.182220,185.756424 344.299622,186.229279 
	C343.564148,185.561188 343.013245,185.491196 342.237244,185.803406 
	C335.508636,186.930679 328.929626,186.770752 321.923859,186.452408 
	C321.705231,185.164673 322.726501,185.693115 323.377319,185.445465 
	C323.228455,186.095291 323.740265,185.708908 323.387970,185.617752 
	C322.778534,185.460052 322.212189,185.551987 321.641510,185.518356 
	C320.518433,185.452164 319.386932,185.459763 318.262177,185.509949 
	C317.156311,185.559326 316.003815,185.237976 315.180237,186.105896 
	C302.783173,186.196381 290.152496,186.326904 277.545746,185.839447 
	C224.303864,183.780838 171.040955,184.476395 117.783897,184.357422 
	C115.988113,184.353409 114.192307,184.356918 111.890129,184.356918 
	C113.136909,179.315720 116.983452,175.686920 117.108406,170.352951 
	C119.047035,164.483124 118.274063,158.999298 117.168205,153.519699 
	C116.854469,151.965118 115.676559,150.461990 117.166122,148.590881 
	C117.843689,147.943115 118.398216,147.644012 118.754944,146.789948 
	C119.327942,145.555405 119.066483,144.658096 118.483994,143.479462 
	C117.494728,142.103348 117.869720,140.387451 116.365219,139.705811 
	C116.055260,140.122360 115.977585,140.412186 116.011162,141.001312 
	C116.054039,141.476562 116.067589,141.674759 116.059929,142.184357 
	C115.728340,143.664337 115.200768,144.572937 113.512161,144.164886 
	C113.258904,143.934830 113.054901,143.919403 113.063736,143.817505 
	C111.966057,142.910141 110.594307,142.469620 109.592247,140.998062 
	C108.762718,138.014557 106.391670,137.651154 103.977913,136.784332 
	C102.501274,136.303726 101.791435,135.387436 100.798653,134.286072 
	C98.868797,132.599670 97.004700,132.474976 95.023994,133.364914 
	C93.830521,133.901154 92.629517,134.732208 91.246613,132.920715 
	C90.663216,132.300964 90.469238,131.914062 90.119736,131.260223 
	C89.874100,131.039932 89.947052,131.052795 89.935150,131.087860 
	C89.392838,129.994400 89.209404,128.823227 89.766296,127.233826 
	C96.362762,131.256439 102.635605,129.193542 108.724220,126.463600 
	C112.499565,124.770859 115.973106,124.992546 119.785217,126.205849 
	C126.835236,128.449692 132.549713,125.319534 135.665405,118.845016 
	C137.748459,114.516380 139.577530,109.666687 145.563187,108.496918 
	C147.985016,108.023628 149.529724,105.304024 150.430359,102.405602 
	C153.309677,99.464935 153.461243,95.749268 154.753937,92.081146 
	C154.924652,91.416077 155.072952,91.183701 155.562195,90.982727 
	C156.118790,90.768295 156.429916,90.553329 156.825806,90.025986 
	C156.947754,89.767426 156.953568,89.951485 156.861496,89.951096 
	C157.123550,89.810844 157.421997,89.595802 157.795959,89.049942 
	C158.582977,86.422882 159.455536,84.074860 159.831345,81.649857 
	C160.646088,76.392441 158.661530,73.401619 153.611099,71.745041 
	C145.054916,68.938530 144.851212,68.940620 144.755981,59.619522 
	C144.683746,52.549423 141.170868,46.645191 137.248322,41.762806 
	C134.489502,38.328892 128.524368,37.437366 123.387856,38.671280 
	C120.501755,39.364586 117.841850,40.899384 114.393188,40.989346 
	C113.804527,40.799477 113.620956,40.666298 113.711395,40.331512 
	C115.427765,40.074055 116.410110,39.100582 117.273170,38.187000 
	C121.339241,33.882904 126.498917,32.316505 132.603134,31.999084 
	C136.822342,31.595110 139.602676,33.851341 142.874054,35.845970 
z"/>
<path fill="#DDC2A0" opacity="1.000000" stroke="none" 
	d="
M231.766785,209.714798 
	C230.457947,212.268356 232.740311,213.137848 233.831192,214.791107 
	C233.213242,217.146866 234.293991,219.341553 233.756271,221.666382 
	C233.592712,222.864136 232.985397,223.578232 231.705902,223.964020 
	C221.500870,226.021454 221.500870,226.021454 221.500473,214.672058 
	C221.496033,213.796295 221.509735,213.078690 221.876160,212.947021 
	C225.245560,211.736374 219.679901,212.538940 221.554108,211.336609 
	C221.714386,207.982254 221.045990,204.960312 222.220459,201.716690 
	C223.613052,200.927505 224.770676,201.038162 226.344910,201.019073 
	C227.657822,201.037186 228.495010,201.246323 229.689148,201.773468 
	C230.069214,201.982620 230.006973,201.997055 230.010345,201.965302 
	C230.415649,202.469589 230.617584,203.130798 231.253372,203.916626 
	C232.347321,205.936096 231.613129,207.706406 231.766785,209.714798 
z"/>
<path fill="#3A4E5C" opacity="1.000000" stroke="none" 
	d="
M302.171997,201.430466 
	C300.261505,203.507553 301.353546,205.774933 301.053741,207.840591 
	C300.706635,210.232361 301.764740,211.138321 304.148285,210.926300 
	C305.942474,210.766693 307.762268,210.894730 310.685883,210.894730 
	C307.131409,213.268356 303.057770,210.737198 301.648468,212.935333 
	C300.336273,214.981949 300.701752,218.476624 301.146545,221.200241 
	C302.091431,226.985962 307.454163,221.916794 310.205444,224.760605 
	C307.102020,226.132843 304.021820,225.371231 301.053528,225.395477 
	C299.578125,225.407547 299.190186,224.225586 299.186798,222.952866 
	C299.168579,216.132431 299.162811,209.311935 299.154572,202.491470 
	C299.152924,201.126877 299.803864,200.312881 301.577515,200.143036 
	C302.332764,200.429733 302.463104,200.784683 302.171997,201.430466 
z"/>
<path fill="#3E505D" opacity="1.000000" stroke="none" 
	d="
M269.127869,212.270660 
	C260.795563,213.669922 263.754547,220.500519 262.831512,225.107437 
	C260.430939,225.069931 261.065826,223.555405 261.057556,222.566818 
	C261.007629,216.591675 261.262756,210.603958 260.952972,204.644516 
	C260.748047,200.702835 262.315155,199.537552 266.292603,200.118927 
	C267.257355,200.342361 267.489349,200.756348 267.144592,201.653229 
	C264.469238,201.635742 262.589691,201.858780 263.009674,205.134933 
	C263.219635,206.772812 263.064056,208.457535 263.138794,210.569336 
	C263.300385,211.176300 263.397003,211.335022 263.736267,211.630936 
	C264.749268,211.796280 265.519653,211.824402 266.664673,211.754364 
	C267.220947,211.586243 267.402588,211.516296 267.762817,211.215332 
	C268.122620,210.985687 268.303833,210.987091 268.711548,211.138901 
	C269.077820,211.510376 269.217651,211.731445 269.127869,212.270660 
z"/>
<path fill="#4F5E67" opacity="1.000000" stroke="none" 
	d="
M384.127563,213.606934 
	C381.993896,213.973557 382.113068,215.354813 382.122864,216.704941 
	C382.142914,219.475998 382.128906,222.247314 382.128906,225.018524 
	C381.718506,225.020279 381.308105,225.022034 380.897705,225.023788 
	C380.897705,216.936188 380.897705,208.848587 380.897705,200.760986 
	C382.581573,202.466919 381.593201,204.684860 382.245636,206.464203 
	C382.658142,207.589355 379.984650,211.461746 384.537811,209.747498 
	C384.450531,210.894562 384.363251,212.041611 384.127563,213.606934 
z"/>
<path fill="#21394B" opacity="1.000000" stroke="none" 
	d="
M119.235992,148.637924 
	C116.374115,149.857590 117.478363,151.558701 117.928429,153.311386 
	C119.323029,158.742310 119.969917,164.212769 117.571854,169.816864 
	C118.708534,161.123428 117.150055,152.715530 113.397217,144.270676 
	C114.587074,143.691193 114.927063,142.700882 115.103806,141.223114 
	C119.303909,141.785828 119.203606,145.151123 119.235992,148.637924 
z"/>
<path fill="#2E4555" opacity="1.000000" stroke="none" 
	d="
M110.235321,41.574539 
	C106.340469,43.578690 102.991508,41.792141 99.579292,40.805820 
	C98.786377,40.576626 98.000191,40.085205 98.149986,39.105423 
	C98.304047,38.097675 99.231552,37.930428 100.043648,37.983421 
	C103.124062,38.184441 106.273155,37.342617 109.637436,38.790184 
	C110.408035,39.735508 110.881981,40.452007 110.235321,41.574539 
z"/>
<path fill="#273E4F" opacity="1.000000" stroke="none" 
	d="
M89.839851,43.401627 
	C92.487122,42.354248 92.200150,43.801323 91.842720,45.206577 
	C90.882935,48.980030 87.520920,50.205097 84.111633,52.800369 
	C83.739334,47.656700 84.801170,44.533962 89.839851,43.401627 
z"/>
<path fill="#273E4F" opacity="1.000000" stroke="none" 
	d="
M222.956970,201.482178 
	C221.373947,204.676361 222.596863,207.736847 222.141525,211.069458 
	C222.310364,211.793320 222.486526,212.104919 222.388168,212.877945 
	C222.137787,214.323044 222.178024,215.306610 222.183548,216.290375 
	C222.232300,224.982803 222.347092,225.077438 231.181976,223.708130 
	C229.308411,225.853516 226.703827,225.104034 224.293243,225.396027 
	C221.580551,225.724609 220.912048,224.390106 220.957733,221.914215 
	C221.080215,215.277496 221.013489,208.637283 221.109497,201.542664 
	C221.820160,200.329147 222.426559,200.522369 222.956970,201.482178 
z"/>
<path fill="#273E4F" opacity="1.000000" stroke="none" 
	d="
M100.672073,134.334915 
	C101.541763,134.340408 102.507156,134.656143 103.777565,135.006622 
	C105.486244,137.562485 108.238609,138.193665 110.716927,139.780060 
	C111.603577,141.030090 112.222137,142.084595 112.956635,143.427338 
	C107.259865,143.013367 102.299805,141.154465 100.672073,134.334915 
z"/>
<path fill="#21394B" opacity="1.000000" stroke="none" 
	d="
M117.149277,224.421799 
	C116.548431,224.848358 116.076393,225.018906 115.591476,225.072235 
	C108.950172,225.802414 108.944412,225.798447 108.942513,219.355591 
	C108.940811,213.572601 108.952545,207.789612 109.041199,201.550446 
	C109.715149,200.958008 110.230888,201.098938 110.920975,201.855225 
	C111.278938,202.451996 111.387749,202.708557 111.662964,203.346207 
	C112.379372,208.779785 111.942642,213.849991 112.122086,219.242676 
	C112.197586,220.171936 112.283554,220.759918 112.801666,221.485046 
	C113.339432,221.887604 113.688576,222.064499 114.347603,222.325027 
	C115.276527,222.581818 115.906006,222.734756 116.718620,223.296631 
	C117.070168,223.714508 117.171135,223.912903 117.149277,224.421799 
z"/>
<path fill="#677074" opacity="1.000000" stroke="none" 
	d="
M209.841721,248.133469 
	C212.209671,244.415680 209.906403,240.285065 212.059357,236.752472 
	C213.473984,241.215469 213.025360,245.779160 212.746170,250.303497 
	C212.677185,251.421280 212.369446,251.402283 210.123016,249.348114 
	C209.841034,248.833664 209.695526,248.615494 209.841721,248.133469 
z"/>
<path fill="#4F5E67" opacity="1.000000" stroke="none" 
	d="
M217.235748,251.665405 
	C217.010483,246.490875 217.010483,241.637619 217.010483,236.784378 
	C217.518509,236.798386 218.026550,236.812378 218.534576,236.826385 
	C218.357071,241.882080 220.470123,246.966614 217.235748,251.665405 
z"/>
<path fill="#3E505D" opacity="1.000000" stroke="none" 
	d="
M158.375702,238.364197 
	C160.227966,240.657578 161.055237,247.197205 159.851395,251.422928 
	C159.482925,249.068680 159.082779,247.363495 158.982086,245.640793 
	C158.870270,243.727554 159.105972,241.770294 157.057526,240.637192 
	C157.473190,239.978073 157.888855,239.318939 158.375702,238.364197 
z"/>
<path fill="#52616A" opacity="1.000000" stroke="none" 
	d="
M360.079285,243.134048 
	C360.079315,246.324341 360.079315,249.050140 360.079315,251.775940 
	C359.663422,251.774017 359.247498,251.772095 358.831604,251.770157 
	C358.831604,246.805313 358.831604,241.840454 358.831604,236.875595 
	C360.571228,238.622391 359.866302,240.718216 360.079285,243.134048 
z"/>
<path fill="#273E4F" opacity="1.000000" stroke="none" 
	d="
M394.085144,249.132233 
	C396.919250,248.433075 395.541565,246.083054 395.674042,244.559494 
	C395.885803,242.124481 395.730713,239.657547 396.536499,237.160126 
	C396.536499,241.916718 396.536499,246.673294 396.536499,251.503220 
	C395.361450,251.376862 394.936615,250.244690 394.085144,249.132233 
z"/>
<path fill="#2E4555" opacity="1.000000" stroke="none" 
	d="
M327.985535,238.110138 
	C328.323547,236.978790 329.174316,236.658951 329.205170,237.544312 
	C329.367737,242.205582 329.281311,246.875534 329.281311,251.542465 
	C328.847748,251.541428 328.414154,251.540375 327.980591,251.539337 
	C327.980591,247.191360 327.980591,242.843384 327.985535,238.110138 
z"/>
<path fill="#3A4E5C" opacity="1.000000" stroke="none" 
	d="
M225.865723,236.665497 
	C226.520676,236.393509 226.912613,236.352371 227.600067,236.306915 
	C228.289200,236.576630 228.463531,236.952377 228.187012,237.675507 
	C227.739258,242.462601 227.523026,247.004044 227.306793,251.545486 
	C226.847534,251.566895 226.388290,251.588318 225.929031,251.609726 
	C225.929031,247.443970 225.929031,243.278214 225.882538,238.663269 
	C225.573227,237.807617 225.495468,237.368362 225.865723,236.665497 
z"/>
<path fill="#2E4555" opacity="1.000000" stroke="none" 
	d="
M200.345230,240.461456 
	C200.167801,239.107956 200.108795,238.152557 200.041779,237.067780 
	C203.765869,239.138260 205.467194,242.579239 207.804047,245.859467 
	C206.614670,243.613983 203.447800,243.341553 202.324844,240.456833 
	C201.935989,240.610123 201.547119,240.763428 201.158264,240.916718 
	C201.158264,244.226471 201.158264,247.536209 201.060852,251.198578 
	C199.955048,248.026672 200.786835,244.416107 200.345230,240.461456 
z"/>
<path fill="#D2BC9F" opacity="1.000000" stroke="none" 
	d="
M339.874878,238.792404 
	C340.475220,239.537247 340.715820,240.049698 340.950989,240.854599 
	C342.034424,246.260986 342.034424,246.260986 336.865112,246.473724 
	C335.595337,246.186707 335.500397,245.450516 335.239380,244.378815 
	C336.270508,242.822937 337.156921,241.360291 337.828125,239.383255 
	C338.396179,238.652679 338.912354,238.478241 339.874878,238.792404 
z"/>
<path fill="#21394B" opacity="1.000000" stroke="none" 
	d="
M327.516449,177.169128 
	C323.584930,180.515015 318.964325,179.292740 314.180847,177.575424 
	C318.369293,177.188339 322.713135,177.149033 327.516449,177.169128 
z"/>
<path fill="#21394B" opacity="1.000000" stroke="none" 
	d="
M341.735718,215.604523 
	C344.047485,215.762802 346.106415,215.799255 348.592957,215.724609 
	C349.020630,215.613495 349.471466,215.530823 349.446411,215.303024 
	C352.595642,214.537857 350.762665,217.429123 351.896332,218.289505 
	C347.563873,215.984589 343.356720,216.976395 338.773651,217.664688 
	C338.168030,216.467621 339.882141,215.229568 340.067627,213.386566 
	C340.650330,212.896484 341.032074,213.023193 341.175232,213.719131 
	C341.025940,214.188675 341.037231,214.355515 341.119446,214.762970 
	C341.287872,215.163300 341.385345,215.322998 341.735718,215.604523 
z"/>
<path fill="#52616A" opacity="1.000000" stroke="none" 
	d="
M386.096375,239.782043 
	C386.148804,244.020187 386.148804,247.924606 386.148804,251.829041 
	C385.521576,251.845535 384.894318,251.862045 384.267090,251.878540 
	C383.935791,246.892487 383.921265,241.885025 384.709869,236.916153 
	C385.622040,237.696930 385.850922,238.565125 386.096375,239.782043 
z"/>
<path fill="#52616A" opacity="1.000000" stroke="none" 
	d="
M291.277466,242.314117 
	C295.867798,235.502213 297.914001,234.631714 302.890076,237.477844 
	C298.440369,237.731201 293.709869,236.948441 292.471069,243.031738 
	C291.811798,243.287125 291.523346,243.048615 291.277466,242.314117 
z"/>
<path fill="#52616A" opacity="1.000000" stroke="none" 
	d="
M239.860504,246.587982 
	C239.650604,248.565445 240.361877,250.284668 238.788437,252.295441 
	C237.206360,248.305161 238.746552,243.933548 236.604141,241.433807 
	C236.952408,242.817459 241.442780,242.484619 239.860504,246.587982 
z"/>
<path fill="#465763" opacity="1.000000" stroke="none" 
	d="
M263.205750,247.850311 
	C258.412567,245.502914 255.299957,247.013275 252.988434,251.427216 
	C253.991318,248.699585 254.960510,245.958664 256.027863,243.256500 
	C256.221863,242.765366 256.677124,241.494186 257.381714,242.957962 
	C257.547180,243.301743 257.196625,243.893906 257.125488,244.681000 
	C257.266632,245.148834 257.365692,245.307465 257.730591,245.555740 
	C258.731903,245.671936 259.467377,245.698486 260.565369,245.660080 
	C261.403137,245.355255 261.897247,245.306503 262.743774,245.637634 
	C263.077362,245.826477 263.097412,245.951187 263.160461,245.947128 
	C263.289307,246.127335 263.355164,246.311600 263.451721,246.787781 
	C263.466034,247.274734 263.449677,247.469772 263.205750,247.850311 
z"/>
<path fill="#465763" opacity="1.000000" stroke="none" 
	d="
M178.008575,244.955383 
	C178.695496,242.169098 175.449203,239.583511 178.627777,236.837128 
	C179.134567,241.033722 179.589142,244.798035 180.071289,248.790512 
	C177.873138,248.118118 178.491882,246.484756 178.008575,244.955383 
z"/>
<path fill="#21394B" opacity="1.000000" stroke="none" 
	d="
M194.244751,249.197876 
	C193.983505,245.041672 193.983505,241.085983 193.983505,237.130310 
	C194.398132,237.109421 194.812759,237.088531 195.227386,237.067657 
	C195.227386,240.794968 195.227386,244.522293 195.142303,248.643707 
	C194.873474,249.158005 194.689728,249.278214 194.244751,249.197876 
z"/>
<path fill="#273E4F" opacity="1.000000" stroke="none" 
	d="
M178.560516,81.609375 
	C175.320786,78.857285 175.459656,74.512520 174.755508,70.282204 
	C177.217117,73.422318 177.423264,77.468246 178.560516,81.609375 
z"/>
<path fill="#0E293C" opacity="1.000000" stroke="none" 
	d="
M163.521393,180.936676 
	C157.236450,182.865356 150.427628,182.098770 143.334183,181.149094 
	C149.716934,180.860672 156.386932,180.871750 163.521393,180.936676 
z"/>
<path fill="#3A4E5C" opacity="1.000000" stroke="none" 
	d="
M113.915764,236.411133 
	C116.443901,235.965256 118.737061,235.225723 121.091965,237.987503 
	C117.439171,237.225067 114.534477,237.304932 111.883163,239.020920 
	C111.434479,237.151459 112.701546,237.038559 113.915764,236.411133 
z"/>
<path fill="#5B686F" opacity="1.000000" stroke="none" 
	d="
M193.820953,249.348206 
	C194.160309,249.061188 194.337128,249.125031 194.785568,249.113342 
	C193.387375,253.893753 190.034866,253.279968 186.172272,251.420166 
	C185.819672,250.891815 185.681534,250.648453 185.838074,250.106140 
	C188.678207,252.342178 191.173950,251.414139 193.820953,249.348206 
z"/>
<path fill="#4F5E67" opacity="1.000000" stroke="none" 
	d="
M146.322144,242.319748 
	C146.306458,240.575928 146.512543,239.145355 146.830368,236.939209 
	C148.334152,239.984299 149.462814,242.269836 150.743408,244.862976 
	C148.098862,244.825302 149.195496,242.163544 147.284424,241.911499 
	C146.824249,242.204895 146.684067,242.418945 146.322144,242.319748 
z"/>
<path fill="#4F5E67" opacity="1.000000" stroke="none" 
	d="
M314.648743,251.082535 
	C314.088837,250.808319 313.688232,250.744247 313.529663,250.513718 
	C313.157532,249.972580 313.430145,249.576141 314.010193,249.883987 
	C316.394623,251.149338 318.985870,251.202835 322.470123,251.025238 
	C319.302582,254.369949 317.114563,252.543564 314.648743,251.082535 
z"/>
<path fill="#2E4555" opacity="1.000000" stroke="none" 
	d="
M189.903931,214.823151 
	C190.723480,218.182465 190.642502,221.379745 190.282578,224.569580 
	C189.863022,224.591568 189.443481,224.613556 189.023926,224.635529 
	C189.023926,221.718613 189.023926,218.801712 189.085968,215.435364 
	C189.314819,214.883408 189.481628,214.780869 189.903931,214.823151 
z"/>
<path fill="#273E4F" opacity="1.000000" stroke="none" 
	d="
M143.003265,35.746422 
	C139.978806,34.860989 136.765518,33.680893 133.285858,32.269417 
	C137.236664,30.443800 139.820892,33.534988 143.003265,35.746422 
z"/>
<path fill="#3E505D" opacity="1.000000" stroke="none" 
	d="
M186.023209,249.365570 
	C186.109283,250.029266 186.085831,250.251343 186.010101,250.804321 
	C184.429672,250.467484 184.146423,249.098282 184.057098,247.300171 
	C184.919128,243.920334 184.342056,240.843094 184.326370,237.430573 
	C186.754196,237.558990 185.076385,239.483749 185.247055,240.646637 
	C185.647385,243.374176 184.965790,246.213150 186.023209,249.365570 
z"/>
<path fill="#465763" opacity="1.000000" stroke="none" 
	d="
M146.017105,242.399384 
	C146.100357,242.006485 146.532318,241.993271 146.748383,241.992050 
	C147.175507,245.104065 147.207092,248.193604 145.546127,252.413757 
	C144.364166,248.292969 145.993561,245.560013 146.017105,242.399384 
z"/>
<path fill="#3A4E5C" opacity="1.000000" stroke="none" 
	d="
M335.913605,245.943878 
	C339.866364,246.585938 341.818726,245.762192 340.652466,241.315369 
	C341.843933,243.246689 342.742310,245.346329 344.153717,248.644958 
	C341.201111,246.643158 338.958954,247.123474 336.382996,246.988617 
	C335.886536,246.737350 335.777588,246.496506 335.913605,245.943878 
z"/>
<path fill="#465763" opacity="1.000000" stroke="none" 
	d="
M165.769958,241.825684 
	C166.153549,245.180725 166.294113,248.357910 164.838654,252.746460 
	C163.366837,248.416168 165.254318,245.646606 165.031937,242.408325 
	C165.254135,241.889999 165.400497,241.770325 165.769958,241.825684 
z"/>
<path fill="#3E505D" opacity="1.000000" stroke="none" 
	d="
M316.901855,236.156219 
	C318.815674,236.075623 320.483093,235.450424 322.578857,237.021713 
	C319.663300,237.456543 317.307465,237.807892 314.858368,238.173157 
	C314.939117,236.766052 316.027435,236.804352 316.901855,236.156219 
z"/>
<path fill="#183245" opacity="1.000000" stroke="none" 
	d="
M148.918747,217.389297 
	C149.367294,215.974594 149.673508,214.853180 149.995117,213.380066 
	C150.478302,212.807175 150.893097,212.881546 151.302063,213.603699 
	C151.268387,214.122665 151.187592,214.289322 151.153717,214.729828 
	C151.296234,215.164886 151.391815,215.326111 151.738831,215.613022 
	C154.033112,215.781189 156.075943,215.823654 158.547424,215.774689 
	C159.200104,215.591019 159.424133,215.498764 160.008545,215.452866 
	C161.059235,215.952042 161.410309,216.473846 160.372635,217.092804 
	C156.815628,217.072159 153.602600,217.166916 150.135956,217.605362 
	C149.446655,218.138489 149.074768,218.063095 148.918747,217.389297 
z"/>
<path fill="#2E4555" opacity="1.000000" stroke="none" 
	d="
M122.758728,207.248199 
	C126.698631,210.093903 125.201042,213.805969 124.215790,217.704803 
	C123.828415,218.129181 123.652466,218.269226 123.153038,218.311249 
	C122.511330,217.892807 122.267059,217.524704 122.040100,216.777802 
	C121.932373,216.029282 121.924751,215.601883 121.971687,214.867661 
	C122.063301,213.780273 122.187187,213.001556 122.050911,211.921661 
	C121.945747,211.233795 121.897545,210.835968 121.826706,210.127258 
	C121.786423,209.394104 121.827614,208.975235 122.014267,208.255493 
	C122.240929,207.773438 122.362709,207.595978 122.758728,207.248199 
z"/>
<path fill="#3E505D" opacity="1.000000" stroke="none" 
	d="
M376.232849,238.249573 
	C373.578613,237.637665 371.282227,237.080673 368.575745,238.210083 
	C367.979370,238.149826 367.811157,237.998642 367.811523,237.553040 
	C370.903412,235.075485 373.803192,235.653564 376.947754,237.613052 
	C376.998779,238.081299 376.795593,238.269623 376.232849,238.249573 
z"/>
<path fill="#183245" opacity="1.000000" stroke="none" 
	d="
M351.264282,237.732605 
	C351.122742,242.556274 351.122742,246.976608 351.122742,251.396942 
	C350.642303,251.400269 350.161865,251.403595 349.681427,251.406921 
	C349.681427,247.095108 349.681427,242.783295 349.392578,238.155045 
	C348.955414,237.615524 348.807098,237.392441 348.783234,236.787292 
	C349.372375,236.458603 349.837128,236.511963 350.652710,236.570145 
	C351.137665,236.826401 351.271759,237.077835 351.264282,237.732605 
z"/>
<path fill="#2E4555" opacity="1.000000" stroke="none" 
	d="
M365.775787,246.830811 
	C365.760284,249.491501 364.497009,248.328461 364.182953,247.358414 
	C363.391754,244.914612 363.144745,242.364258 365.204102,239.869598 
	C365.577850,239.496994 365.793243,239.419617 366.019989,239.685333 
	C365.968170,240.410278 365.904999,240.792114 365.877228,241.464264 
	C365.805695,241.953827 365.698792,242.153076 365.447540,242.659210 
	C365.247650,243.738678 365.192139,244.511215 365.237152,245.661713 
	C365.415344,246.227905 365.493042,246.416138 365.775787,246.830811 
z"/>
<path fill="#465763" opacity="1.000000" stroke="none" 
	d="
M302.738800,250.665802 
	C302.973083,250.735550 303.407623,250.977798 303.637390,251.035492 
	C301.116821,254.029297 298.115906,253.141174 294.881348,251.341064 
	C294.649231,250.812302 294.612488,250.611740 294.780975,250.184387 
	C296.950623,251.023407 298.971191,251.734360 301.628967,250.826996 
	C302.028778,250.708450 302.504517,250.596039 302.738800,250.665802 
z"/>
<path fill="#52616A" opacity="1.000000" stroke="none" 
	d="
M166.307556,241.927551 
	C165.993073,242.000732 165.550369,241.999039 165.329071,242.004349 
	C165.309677,240.716827 165.511566,239.424011 165.713455,238.131180 
	C165.801407,239.412277 170.053696,239.643219 166.307556,241.927551 
z"/>
<path fill="#21394B" opacity="1.000000" stroke="none" 
	d="
M154.602325,91.935440 
	C154.978531,95.532562 154.246918,99.049522 151.020477,101.996689 
	C151.887772,98.837914 153.091705,95.487839 154.602325,91.935440 
z"/>
<path fill="#4F5E67" opacity="1.000000" stroke="none" 
	d="
M302.381195,201.752502 
	C301.931274,201.314148 301.936096,200.985855 301.968689,200.411606 
	C304.601776,199.955414 307.231201,199.656387 310.246246,200.492996 
	C307.894653,203.040451 305.170624,201.514801 302.381195,201.752502 
z"/>
<path fill="#3E505D" opacity="1.000000" stroke="none" 
	d="
M148.861099,217.381500 
	C149.200638,217.326385 149.358231,217.543686 149.708130,217.848480 
	C149.042725,220.214828 148.203110,222.480591 146.926971,225.924286 
	C146.160767,221.956009 148.086411,219.973404 148.861099,217.381500 
z"/>
<path fill="#273E4F" opacity="1.000000" stroke="none" 
	d="
M110.271065,248.865448 
	C107.982063,246.409225 108.604561,243.655838 109.839272,240.844208 
	C110.030624,243.042786 110.221977,245.241364 110.560242,247.763214 
	C110.655563,248.294388 110.603973,248.502304 110.271065,248.865448 
z"/>
<path fill="#4F5E67" opacity="1.000000" stroke="none" 
	d="
M388.901306,219.711761 
	C387.449768,218.196396 385.889313,216.386551 384.153992,214.300949 
	C383.979126,214.025192 384.083862,213.916946 384.140991,213.859253 
	C386.645416,214.924210 387.361786,217.462906 388.901306,219.711761 
z"/>
<path fill="#5B686F" opacity="1.000000" stroke="none" 
	d="
M269.096313,212.318298 
	C268.855194,212.300156 268.850250,212.010818 268.910767,211.505066 
	C271.690247,209.958847 268.541534,206.434357 271.402466,204.984421 
	C273.565430,208.238602 270.585114,209.906540 269.096313,212.318298 
z"/>
<path fill="#465763" opacity="1.000000" stroke="none" 
	d="
M312.491577,244.718170 
	C312.591125,245.892914 312.982910,246.876541 312.161926,247.313675 
	C311.462921,247.685852 310.998474,246.981400 310.988220,246.273270 
	C310.962128,244.472076 310.175629,242.452957 312.145233,241.028320 
	C313.394379,242.183197 312.179382,243.292419 312.491577,244.718170 
z"/>
<path fill="#2E4555" opacity="1.000000" stroke="none" 
	d="
M268.924988,237.772980 
	C270.397583,236.459793 272.319122,234.347244 275.121185,237.822281 
	C272.994965,237.699249 271.211395,237.596039 268.924988,237.772980 
z"/>
<path fill="#3A4E5C" opacity="1.000000" stroke="none" 
	d="
M282.120605,236.985931 
	C280.575958,238.696960 281.335175,240.580856 281.319244,243.080078 
	C278.823669,240.248108 279.090454,238.410645 281.588959,236.500153 
	C282.014282,236.447815 282.156799,236.593109 282.120605,236.985931 
z"/>
<path fill="#465763" opacity="1.000000" stroke="none" 
	d="
M336.148438,245.351669 
	C336.126556,245.855850 336.094513,246.079605 336.028992,246.640778 
	C333.757751,247.875671 335.285583,251.247253 332.546326,252.078354 
	C332.339905,249.213074 335.069153,247.442230 334.975037,244.430695 
	C335.701935,244.067017 336.006653,244.473206 336.148438,245.351669 
z"/>
<path fill="#E3C6A1" opacity="1.000000" stroke="none" 
	d="
M123.020554,206.711121 
	C123.032967,207.077866 122.953972,207.530441 122.884117,207.749268 
	C119.648544,207.932648 118.688362,205.690002 118.032669,202.793625 
	C118.144844,202.188736 118.233299,201.956589 118.536575,201.419983 
	C121.066841,202.128616 122.818672,203.600540 123.020554,206.711121 
z"/>
<path fill="#465763" opacity="1.000000" stroke="none" 
	d="
M153.592270,204.415588 
	C154.185760,202.284180 155.181274,201.439392 156.620514,203.092468 
	C157.241180,203.805344 158.045120,205.076492 157.143112,206.092346 
	C155.970673,207.412750 156.337952,203.993637 154.954666,205.488373 
	C153.895187,206.231705 153.658752,205.587158 153.592270,204.415588 
z"/>
<path fill="#5B686F" opacity="1.000000" stroke="none" 
	d="
M223.312592,201.868561 
	C222.486420,201.606339 222.084808,201.367218 221.440140,201.107468 
	C223.447952,199.008286 225.903290,199.918549 228.674011,200.795593 
	C228.687775,201.565186 228.103653,201.469498 227.359543,201.694366 
	C225.996567,201.851517 224.866852,201.871567 223.312592,201.868561 
z"/>
<path fill="#465763" opacity="1.000000" stroke="none" 
	d="
M375.365173,251.657883 
	C373.405365,253.202042 371.507355,253.488297 369.176758,252.168915 
	C368.747925,251.792557 368.661194,251.581802 368.728638,251.065964 
	C370.632446,251.196365 372.383301,251.599625 374.616150,250.883881 
	C375.201813,250.989044 375.343964,251.164978 375.365173,251.657883 
z"/>
<path fill="#3A4E5C" opacity="1.000000" stroke="none" 
	d="
M344.001190,205.794067 
	C342.646271,204.728989 343.182922,203.607483 343.948059,202.535477 
	C344.383087,201.925964 344.911804,201.383316 345.398315,200.810547 
	C345.812378,201.618927 346.226410,202.427322 346.766296,203.499908 
	C346.732483,204.580399 346.006470,204.447311 345.197479,204.780426 
	C344.933533,204.943283 345.000763,204.982376 344.980286,204.949310 
	C344.769379,205.216888 344.525024,205.465683 344.001190,205.794067 
z"/>
<path fill="#21394B" opacity="1.000000" stroke="none" 
	d="
M234.012878,221.577057 
	C232.037079,219.777145 233.017242,217.367523 233.651703,215.047180 
	C233.999374,217.128571 234.028763,219.181732 234.012878,221.577057 
z"/>
<path fill="#183245" opacity="1.000000" stroke="none" 
	d="
M315.776642,186.452072 
	C318.177032,183.496017 321.424286,185.628342 324.493378,185.692841 
	C323.722412,185.829941 322.951477,185.967041 321.839478,186.223267 
	C319.715759,186.412918 317.933105,186.483459 315.776642,186.452072 
z"/>
<path fill="#5B686F" opacity="1.000000" stroke="none" 
	d="
M287.164734,249.810776 
	C286.160400,251.557816 285.044556,253.445175 282.224182,252.786377 
	C281.807556,252.351410 281.649353,252.118805 281.713745,251.527740 
	C283.230499,250.973465 284.524567,250.777664 286.114319,250.311340 
	C286.570648,249.923859 286.731384,249.806915 287.164734,249.810776 
z"/>
<path fill="#21394B" opacity="1.000000" stroke="none" 
	d="
M200.131104,240.507233 
	C201.546310,243.541061 200.541687,247.165283 200.930511,251.127472 
	C198.867508,248.174255 200.502991,244.470627 200.131104,240.507233 
z"/>
<path fill="#21394B" opacity="1.000000" stroke="none" 
	d="
M190.351425,214.701279 
	C190.159424,214.968002 189.822113,214.956665 189.822113,214.956665 
	C189.822113,214.956665 189.485367,214.979080 189.316696,214.982513 
	C189.063934,214.668594 188.960770,214.354858 188.899826,214.033127 
	C188.779907,213.400238 188.683441,212.762924 188.577271,212.127441 
	C188.662430,212.165817 188.744019,212.220840 188.833298,212.240067 
	C190.017365,212.494812 192.693039,211.581299 190.351425,214.701279 
z"/>
<path fill="#3A4E5C" opacity="1.000000" stroke="none" 
	d="
M160.313736,217.102448 
	C160.126968,216.747696 160.250183,216.523987 160.307587,216.284470 
	C160.323761,216.217026 160.146988,216.103333 159.889908,215.915527 
	C159.577103,215.392761 159.476547,214.955353 159.216064,214.238708 
	C158.876770,213.054565 158.740921,212.139664 158.462494,210.264359 
	C161.180038,212.646225 160.962662,215.219208 161.844482,217.644989 
	C161.884064,217.023987 161.210388,217.208389 160.313736,217.102448 
z"/>
<path fill="#465763" opacity="1.000000" stroke="none" 
	d="
M139.773804,247.386139 
	C139.879166,245.648636 139.982727,244.266037 140.094604,242.464142 
	C140.221924,241.897171 140.340912,241.749496 140.737442,241.664185 
	C142.747223,243.492859 142.263870,245.378860 141.158051,247.632019 
	C140.532166,248.207062 140.125336,248.115097 139.773804,247.386139 
z"/>
<path fill="#183245" opacity="1.000000" stroke="none" 
	d="
M268.216003,238.373322 
	C268.422180,238.053131 268.620605,238.155106 268.665344,238.116852 
	C269.390167,239.782410 270.070312,241.486221 270.830322,243.390152 
	C268.102997,242.622864 267.684326,240.865295 268.216003,238.373322 
z"/>
<path fill="#21394B" opacity="1.000000" stroke="none" 
	d="
M89.844269,126.640900 
	C90.017456,128.005707 89.991951,129.138809 89.944855,130.697418 
	C88.622025,129.491379 87.593224,127.733521 86.975235,125.252670 
	C88.169518,125.769913 88.907547,126.089554 89.844269,126.640900 
z"/>
<path fill="#3E505D" opacity="1.000000" stroke="none" 
	d="
M275.762604,246.182617 
	C276.274017,247.709885 276.320312,248.975800 275.648315,250.461899 
	C274.433838,246.623337 274.433838,246.623337 275.762604,246.182617 
z"/>
<path fill="#465763" opacity="1.000000" stroke="none" 
	d="
M380.778656,242.969849 
	C381.117279,245.167236 379.970428,246.746414 379.241364,248.761688 
	C378.827484,248.917938 378.635864,248.815918 378.336060,248.406769 
	C378.618439,246.441483 379.009003,244.783295 379.721069,242.934769 
	C380.236816,242.736862 380.431091,242.729294 380.778656,242.969849 
z"/>
<path fill="#52616A" opacity="1.000000" stroke="none" 
	d="
M258.432922,239.736450 
	C258.302887,238.575119 257.524719,236.398468 259.799805,238.139496 
	C260.785065,238.893463 261.423187,240.124893 261.378357,241.572647 
	C259.487915,242.702011 260.102631,239.578629 258.432922,239.736450 
z"/>
<path fill="#21394B" opacity="1.000000" stroke="none" 
	d="
M232.031067,209.626526 
	C229.522415,208.735535 231.860153,206.486130 230.924988,204.575623 
	C230.799408,203.985275 230.670013,203.750137 230.793243,203.201538 
	C232.961258,204.767838 232.138351,207.087677 232.031067,209.626526 
z"/>
<path fill="#4F5E67" opacity="1.000000" stroke="none" 
	d="
M271.903412,252.999725 
	C270.278381,252.830215 269.116638,252.394226 268.236603,250.893005 
	C270.007660,251.137161 271.644135,250.737015 272.758240,252.257156 
	C272.812134,252.330688 272.732056,252.559296 272.648407,252.661942 
	C272.549042,252.783936 272.378235,252.847733 271.903412,252.999725 
z"/>
<path fill="#5B686F" opacity="1.000000" stroke="none" 
	d="
M116.031738,253.015533 
	C114.961967,252.547821 113.414658,252.068222 115.013603,251.271667 
	C116.004913,250.777817 118.263680,250.228561 118.768303,251.778641 
	C119.261284,253.292953 117.380775,252.923981 116.031738,253.015533 
z"/>
<path fill="#21394B" opacity="1.000000" stroke="none" 
	d="
M184.085724,237.506424 
	C185.307526,240.107483 184.855743,243.201660 184.321259,246.618881 
	C184.071152,243.945297 184.024384,240.944351 184.085724,237.506424 
z"/>
<path fill="#E3C6A1" opacity="1.000000" stroke="none" 
	d="
M139.574127,247.252716 
	C139.997192,247.324692 140.218796,247.618149 140.720520,247.942841 
	C140.677338,249.999695 139.683975,251.186310 136.990662,250.778351 
	C137.861908,249.569809 138.617264,248.522003 139.574127,247.252716 
z"/>
<path fill="#21394B" opacity="1.000000" stroke="none" 
	d="
M110.404167,41.785683 
	C109.914391,40.999813 109.809456,40.197849 109.846741,39.202026 
	C111.105476,39.295174 112.221970,39.582188 113.661942,39.999557 
	C113.985413,40.129913 113.986824,40.531273 113.987457,40.731964 
	C113.988091,40.932655 113.570763,41.097904 113.347626,41.073887 
	C112.986076,41.167252 112.847672,41.284637 112.459785,41.293129 
	C111.736534,41.379356 111.262772,41.574474 110.404167,41.785683 
z"/>
<path fill="#465763" opacity="1.000000" stroke="none" 
	d="
M287.664398,249.613037 
	C287.437347,249.931595 287.090240,249.899307 287.090240,249.899307 
	C287.090240,249.899307 286.743713,249.937363 286.576843,249.989090 
	C286.162964,248.405746 285.915985,246.770676 285.588867,244.605209 
	C287.891296,245.915085 288.247955,247.440369 287.664398,249.613037 
z"/>
<path fill="#E5C7A2" opacity="1.000000" stroke="none" 
	d="
M267.204712,202.033081 
	C266.882294,201.541290 266.875641,201.126434 266.786621,200.409943 
	C268.892120,200.125015 270.254242,201.305176 271.193237,203.242020 
	C269.351318,204.619476 268.821014,202.128738 267.204712,202.033081 
z"/>
<path fill="#677074" opacity="1.000000" stroke="none" 
	d="
M225.768951,236.271576 
	C226.046326,236.827637 225.963898,237.220596 225.858765,237.913834 
	C224.500961,237.740707 222.831375,238.663437 221.656464,237.188263 
	C222.449966,235.199997 224.100327,236.215256 225.768951,236.271576 
z"/>
<path fill="#183245" opacity="1.000000" stroke="none" 
	d="
M392.040833,203.329819 
	C390.460236,204.614822 389.909607,206.682007 386.540710,207.032990 
	C388.900330,204.995026 389.701447,202.937866 391.904907,202.118317 
	C392.009644,202.079376 392.302094,202.227203 392.311890,202.310867 
	C392.340454,202.555450 392.270172,202.811615 392.040833,203.329819 
z"/>
<path fill="#52616A" opacity="1.000000" stroke="none" 
	d="
M307.702148,241.930756 
	C307.955566,243.710236 308.369080,245.213867 307.235596,246.861160 
	C306.826080,247.233368 306.639984,247.313889 306.222595,247.196838 
	C305.976532,245.609406 305.961761,244.219528 305.966125,242.412933 
	C306.413757,241.623032 306.906250,241.494720 307.702148,241.930756 
z"/>
<path fill="#3A4E5C" opacity="1.000000" stroke="none" 
	d="
M129.744843,237.262787 
	C131.443741,235.534637 133.352798,235.960205 135.571823,236.197418 
	C136.053101,236.535980 136.162094,236.715393 136.061493,237.129730 
	C135.246979,237.518845 134.596985,237.479904 133.715332,237.816940 
	C132.496231,237.800369 131.590378,237.757217 130.357758,237.837219 
	C129.893005,237.817535 129.754974,237.674713 129.744843,237.262787 
z"/>
<path fill="#677074" opacity="1.000000" stroke="none" 
	d="
M132.970795,251.215057 
	C134.116074,251.261887 135.336395,251.332199 135.073181,252.284943 
	C134.681870,253.701340 133.168579,253.318939 132.269119,252.885117 
	C130.769287,252.161743 131.405304,251.526947 132.970795,251.215057 
z"/>
<path fill="#3E505D" opacity="1.000000" stroke="none" 
	d="
M173.138611,250.739014 
	C172.390610,252.622299 171.658493,251.728073 171.174545,250.929337 
	C170.785278,250.286911 170.518036,249.253967 171.622299,249.032944 
	C172.465515,248.864166 173.672913,248.902618 173.138611,250.739014 
z"/>
<path fill="#E3C6A1" opacity="1.000000" stroke="none" 
	d="
M307.780701,241.959442 
	C307.510895,242.149323 307.079895,242.047333 306.317108,241.970764 
	C304.875275,240.979675 304.139618,239.801422 304.195404,237.766632 
	C306.376862,238.479095 306.171448,240.855713 307.780701,241.959442 
z"/>
<path fill="#2E4555" opacity="1.000000" stroke="none" 
	d="
M391.238586,245.070648 
	C388.428467,244.578491 389.136902,241.692886 387.246033,240.323273 
	C387.740265,242.131790 390.523804,241.847092 391.435730,244.204132 
	C391.573120,244.695511 391.550903,244.887726 391.238586,245.070648 
z"/>
<path fill="#E3C6A1" opacity="1.000000" stroke="none" 
	d="
M141.002655,241.406082 
	C141.014984,241.726517 140.578308,241.941116 140.340607,241.992981 
	C139.479294,241.207764 138.855667,240.370712 138.106964,239.240906 
	C137.869720,238.709473 137.757538,238.470795 138.022110,238.111511 
	C140.121155,238.303635 140.902054,239.404663 141.002655,241.406082 
z"/>
<path fill="#5B686F" opacity="1.000000" stroke="none" 
	d="
M110.449371,202.427399 
	C109.972488,201.907028 109.780174,201.619843 109.355957,201.213470 
	C110.174034,199.277969 111.887291,200.116318 113.742889,200.179230 
	C114.408218,200.735748 114.516045,201.194000 114.301041,202.020447 
	C113.560844,202.864502 112.879143,203.095886 111.753220,203.054291 
	C111.171165,202.882904 110.952545,202.771729 110.449371,202.427399 
z"/>
<path fill="#5B686F" opacity="1.000000" stroke="none" 
	d="
M348.615417,236.253098 
	C348.973236,236.639603 349.038788,236.873978 349.104004,237.473480 
	C347.804871,237.750534 345.788727,238.873230 345.515869,236.926178 
	C345.341095,235.679123 347.259613,236.122910 348.615417,236.253098 
z"/>
<path fill="#3A4E5C" opacity="1.000000" stroke="none" 
	d="
M291.029907,242.419708 
	C291.400726,242.306717 291.678040,242.575424 292.111572,243.091232 
	C292.414154,244.608368 292.560455,245.878403 292.716309,247.471329 
	C292.618866,247.988815 292.511871,248.183395 292.204285,248.112122 
	C290.290375,246.451828 291.012756,244.542130 291.029907,242.419708 
z"/>
<path fill="#5B686F" opacity="1.000000" stroke="none" 
	d="
M351.503723,238.081985 
	C351.090332,237.876785 351.057922,237.617630 351.014557,236.966721 
	C352.339722,235.861023 354.404114,235.382278 354.717010,236.804520 
	C355.148407,238.764877 352.901459,237.635910 351.503723,238.081985 
z"/>
<path fill="#465763" opacity="1.000000" stroke="none" 
	d="
M341.211731,213.756439 
	C340.867004,213.778076 340.705261,213.544052 340.353943,213.198608 
	C340.878723,211.832733 340.469482,209.988022 342.524719,209.242737 
	C342.358429,210.614548 341.883606,212.052795 341.211731,213.756439 
z"/>
<path fill="#3E505D" opacity="1.000000" stroke="none" 
	d="
M282.270477,237.306305 
	C281.941864,237.233429 281.900574,236.769150 281.886169,236.535828 
	C283.071136,235.763840 284.243683,235.635864 285.386261,236.506729 
	C284.824799,238.082352 283.527069,237.132263 282.270477,237.306305 
z"/>
<path fill="#677074" opacity="1.000000" stroke="none" 
	d="
M228.337585,237.956665 
	C227.933411,237.561691 227.911331,237.202209 227.892426,236.572662 
	C229.215607,236.099747 231.115845,235.204742 231.402710,237.115875 
	C231.607086,238.477478 229.719437,237.866837 228.337585,237.956665 
z"/>
<path fill="#E3C6A1" opacity="1.000000" stroke="none" 
	d="
M305.759644,247.232895 
	C306.160614,247.030655 306.329865,247.062057 306.755676,247.123138 
	C307.001648,248.935425 306.549255,250.432007 304.215271,251.014648 
	C303.867126,251.093185 303.988007,251.018875 303.936768,251.067398 
	C304.433044,249.899460 304.980499,248.682983 305.759644,247.232895 
z"/>
<path fill="#3E505D" opacity="1.000000" stroke="none" 
	d="
M162.147614,217.880219 
	C162.884384,219.129837 163.574158,220.390121 163.194244,223.088959 
	C161.744186,221.151901 161.191391,220.056610 162.202774,218.144775 
	C162.187744,217.824448 162.168747,217.871002 162.147614,217.880219 
z"/>
<path fill="#273E4F" opacity="1.000000" stroke="none" 
	d="
M114.378021,202.179306 
	C114.095161,201.488113 114.122253,201.155899 114.133652,200.574509 
	C115.438019,200.557999 116.760620,200.790863 118.417297,201.069641 
	C118.751389,201.115524 118.802086,201.447601 118.856705,201.606445 
	C117.711372,203.163956 116.296402,203.386841 114.378021,202.179306 
z"/>
<path fill="#E3C6A1" opacity="1.000000" stroke="none" 
	d="
M292.042664,248.173889 
	C292.003662,247.846237 292.356567,247.691345 292.541199,247.742783 
	C293.379791,248.328323 294.033691,248.862427 294.836884,249.677063 
	C294.957153,250.139450 294.928101,250.321304 294.792511,250.758026 
	C293.236084,250.779068 292.341064,249.969864 292.042664,248.173889 
z"/>
<path fill="#3E505D" opacity="1.000000" stroke="none" 
	d="
M125.894920,244.845779 
	C126.717522,246.190598 127.264641,247.694946 127.850410,249.305557 
	C126.184425,249.347015 125.830299,248.458694 125.486031,247.173157 
	C125.502083,246.271027 125.488495,245.628860 125.894920,244.845779 
z"/>
<path fill="#465763" opacity="1.000000" stroke="none" 
	d="
M169.351471,244.024353 
	C169.910370,244.858185 170.215012,245.703613 170.519638,246.549042 
	C170.229111,246.624023 169.791504,246.858551 169.671814,246.748199 
	C168.861984,246.001724 168.142487,245.177673 169.351471,244.024353 
z"/>
<path fill="#DDC2A0" opacity="1.000000" stroke="none" 
	d="
M153.470825,204.259796 
	C153.888840,204.556793 154.124222,205.064484 154.637360,205.645905 
	C154.429276,206.551239 154.627380,208.511032 153.195618,207.832016 
	C151.916214,207.225250 152.639206,205.606995 153.470825,204.259796 
z"/>
<path fill="#3E505D" opacity="1.000000" stroke="none" 
	d="
M128.233734,238.751495 
	C126.910835,239.998962 126.861938,241.447708 126.395729,243.096573 
	C125.979584,243.139557 125.745811,242.888260 125.696487,242.156281 
	C126.435883,240.649139 126.990852,239.622635 127.726105,238.372299 
	C128.060196,238.264221 128.214005,238.379974 128.233734,238.751495 
z"/>
<path fill="#DDC2A0" opacity="1.000000" stroke="none" 
	d="
M151.539062,213.750687 
	C151.111588,213.630402 150.873993,213.304810 150.323471,213.003784 
	C150.139481,211.802734 150.919739,210.486893 151.961899,210.901993 
	C153.537964,211.529755 151.933685,212.637009 151.539062,213.750687 
z"/>
<path fill="#2E4555" opacity="1.000000" stroke="none" 
	d="
M347.782227,205.773132 
	C347.713348,207.012436 349.129639,208.704559 348.049652,208.898117 
	C346.513641,209.173401 346.779266,207.303772 346.802155,205.952896 
	C347.168671,205.679001 347.363007,205.624863 347.782227,205.773132 
z"/>
<path fill="#D2BC9F" opacity="1.000000" stroke="none" 
	d="
M263.066315,245.520844 
	C262.596863,245.797409 262.116364,245.768326 261.281891,245.667191 
	C260.974945,244.813141 260.976227,243.815933 261.839233,243.644928 
	C262.891724,243.436386 262.915466,244.470322 263.066315,245.520844 
z"/>
<path fill="#273E4F" opacity="1.000000" stroke="none" 
	d="
M375.979187,238.334381 
	C376.095337,238.021317 376.317352,238.001434 376.870667,237.937271 
	C378.343719,238.534683 379.394531,239.242264 379.135376,240.998810 
	C378.794403,241.261230 378.614471,241.307404 378.216248,241.180511 
	C377.360321,240.214127 376.722717,239.420837 375.979187,238.334381 
z"/>
<path fill="#0E293C" opacity="1.000000" stroke="none" 
	d="
M117.337860,224.683167 
	C117.026459,224.732315 117.015816,224.273911 116.968697,224.049545 
	C116.840202,223.607681 116.758820,223.390182 116.801926,222.845764 
	C117.736420,221.535065 118.768723,221.114197 120.577667,221.700851 
	C120.494957,223.684906 118.876579,223.890564 117.337860,224.683167 
z"/>
<path fill="#0E293C" opacity="1.000000" stroke="none" 
	d="
M110.073776,249.335434 
	C110.126030,248.795441 110.271355,248.576172 110.566429,248.224670 
	C111.523178,249.059143 112.339203,250.031830 113.626183,251.565872 
	C111.514000,251.631332 111.014885,250.304688 110.073776,249.335434 
z"/>
<path fill="#21394B" opacity="1.000000" stroke="none" 
	d="
M262.999451,248.379486 
	C263.013275,247.839127 263.048340,247.642441 263.067780,247.146469 
	C263.225586,246.778656 263.399048,246.710114 263.786469,246.821899 
	C264.312439,248.205994 264.624481,249.409775 264.967804,250.734222 
	C263.467072,250.605286 263.442566,249.492371 262.999451,248.379486 
z"/>
<path fill="#2E4555" opacity="1.000000" stroke="none" 
	d="
M340.132263,238.742706 
	C339.738953,239.132309 339.243317,239.239822 338.357178,239.215408 
	C337.864990,238.278168 337.730591,237.219772 338.560333,236.968582 
	C339.465881,236.694412 339.839844,237.646606 340.132263,238.742706 
z"/>
<path fill="#2E4555" opacity="1.000000" stroke="none" 
	d="
M393.748932,248.542877 
	C393.916870,248.842468 393.899506,248.771057 393.928711,248.758652 
	C393.456940,247.943466 392.956024,247.140701 392.130341,246.264893 
	C392.397400,246.875671 392.989197,247.559479 393.748932,248.542877 
z"/>
<path fill="#183245" opacity="1.000000" stroke="none" 
	d="
M392.146301,222.213684 
	C393.503754,223.011520 394.494263,223.612259 394.786865,224.934998 
	C393.345703,225.584549 392.905426,224.168427 391.968140,223.392395 
	C391.794830,222.789612 391.719696,222.458664 392.146301,222.213684 
z"/>
<path fill="#3A4E5C" opacity="1.000000" stroke="none" 
	d="
M125.546158,241.906891 
	C125.933739,241.961975 125.986580,242.248322 126.126373,242.962769 
	C126.341278,243.671463 126.379166,243.963730 126.248688,244.476959 
	C126.010544,245.255539 125.850693,245.824844 125.533478,246.644684 
	C124.664177,245.332275 124.833794,243.738800 125.546158,241.906891 
z"/>
<path fill="#273E4F" opacity="1.000000" stroke="none" 
	d="
M386.370972,240.112244 
	C385.393341,239.481644 385.042267,238.658325 385.011810,237.336853 
	C386.294922,237.336548 386.674103,238.487076 387.079895,239.810577 
	C386.932220,240.138290 386.993408,240.101471 387.013336,240.074554 
	C387.033264,240.047623 386.593109,240.108719 386.370972,240.112244 
z"/>
<path fill="#0E293C" opacity="1.000000" stroke="none" 
	d="
M123.334534,219.592407 
	C122.834633,220.594406 122.279022,221.243774 121.420944,222.002151 
	C120.997231,221.996109 120.875984,221.881027 120.572937,221.593262 
	C120.163544,220.358368 120.577583,219.549347 121.720268,218.761429 
	C122.546036,218.662689 122.958839,218.858505 123.334534,219.592407 
z"/>
<path fill="#2E4555" opacity="1.000000" stroke="none" 
	d="
M367.692688,237.360046 
	C367.998840,237.433792 368.017639,237.608978 368.092010,238.042603 
	C367.633179,238.855103 367.118835,239.409195 366.317932,239.995850 
	C366.031372,240.028427 365.695984,239.806870 365.529236,239.690643 
	C366.043457,238.870087 366.724396,238.165771 367.692688,237.360046 
z"/>
<path fill="#3E505D" opacity="1.000000" stroke="none" 
	d="
M138.269043,237.708588 
	C138.297882,238.136765 138.196899,238.282623 138.038910,238.688324 
	C137.426712,238.674088 136.871506,238.400024 135.981964,237.898819 
	C135.700363,237.453217 135.753128,237.234772 135.875000,236.686432 
	C136.675827,236.713104 137.407516,237.069672 138.269043,237.708588 
z"/>
<path fill="#E3C6A1" opacity="1.000000" stroke="none" 
	d="
M128.383972,238.970184 
	C128.099640,239.007233 127.895660,238.601639 127.901024,238.375061 
	C128.366333,237.794861 128.826279,237.441269 129.579468,237.040695 
	C129.872726,236.993713 130.033524,237.463867 130.032272,237.712097 
	C129.576782,238.284607 129.122543,238.608871 128.383972,238.970184 
z"/>
<path fill="#E5C7A2" opacity="1.000000" stroke="none" 
	d="
M368.703186,250.622101 
	C368.868683,250.967682 368.854553,251.174515 368.837524,251.692322 
	C368.224182,251.873383 367.503418,251.771393 367.506134,250.983566 
	C367.508118,250.406647 368.006775,250.298706 368.703186,250.622101 
z"/>
<path fill="#0E293C" opacity="1.000000" stroke="none" 
	d="
M378.067505,248.335693 
	C378.487396,248.221512 378.678314,248.412094 378.909912,248.845688 
	C378.677368,249.457581 378.335602,249.895203 377.760284,250.497177 
	C377.309113,250.630325 377.091522,250.599106 376.893188,250.238708 
	C377.243988,249.463593 377.575562,249.017670 378.067505,248.335693 
z"/>
<path fill="#E3C6A1" opacity="1.000000" stroke="none" 
	d="
M123.547028,219.734253 
	C123.142723,219.618820 122.895203,219.292603 122.324890,218.984741 
	C121.876411,218.495392 122.005180,218.075104 122.785217,217.843262 
	C123.140190,217.929932 123.577293,217.885666 123.790833,217.937408 
	C123.904182,218.500595 123.803993,219.012039 123.547028,219.734253 
z"/>
<path fill="#0E293C" opacity="1.000000" stroke="none" 
	d="
M227.552475,201.921295 
	C227.584259,201.604614 228.042236,201.377792 228.752716,201.072067 
	C229.305862,201.154800 229.606506,201.316437 229.988190,201.730347 
	C229.392105,203.438965 228.673828,201.878265 227.552475,201.921295 
z"/>
<path fill="#21394B" opacity="1.000000" stroke="none" 
	d="
M210.049438,247.646774 
	C210.108826,248.066620 210.084229,248.263641 210.023071,248.756226 
	C209.372009,248.559677 208.757477,248.067535 208.045532,247.282547 
	C208.147552,246.855026 208.346985,246.720337 208.871811,246.741928 
	C209.528549,246.963486 209.784622,247.138718 210.049438,247.646774 
z"/>
<path fill="#183245" opacity="1.000000" stroke="none" 
	d="
M342.378052,186.089783 
	C342.205231,184.177399 343.048248,185.353806 343.838196,185.855453 
	C343.556305,186.085434 343.126617,186.116623 342.378052,186.089783 
z"/>
<path fill="#183245" opacity="1.000000" stroke="none" 
	d="
M153.054840,41.634727 
	C152.729172,41.723145 152.261353,41.575401 151.848175,41.240509 
	C152.239426,41.168430 152.576050,41.283501 153.054840,41.634727 
z"/>
<path fill="#21394B" opacity="1.000000" stroke="none" 
	d="
M89.914322,131.298340 
	C90.197166,131.406128 90.520226,131.772324 90.902695,132.386047 
	C90.626251,132.274628 90.290405,131.915680 89.914322,131.298340 
z"/>
<path fill="#273E4F" opacity="1.000000" stroke="none" 
	d="
M280.388214,251.232300 
	C279.234192,250.898987 278.877472,250.477127 279.276703,249.823090 
	C279.348907,249.704834 279.960205,249.915680 280.498474,250.165527 
	C280.743134,250.686340 280.811920,251.016235 280.388214,251.232300 
z"/>
<path fill="#273E4F" opacity="1.000000" stroke="none" 
	d="
M281.716309,251.048859 
	C281.930939,251.404999 281.925446,251.640717 281.942871,252.230225 
	C281.367432,252.296982 280.769073,252.009964 280.033203,251.420715 
	C280.020111,250.986389 280.144501,250.854324 280.471619,250.539368 
	C280.948303,250.547104 281.222260,250.737762 281.716309,251.048859 
z"/>
<path fill="#E5C7A2" opacity="1.000000" stroke="none" 
	d="
M375.383484,251.891052 
	C375.228424,251.778885 375.212555,251.582901 375.128174,251.100006 
	C375.203949,250.562271 375.396515,250.356705 375.828033,250.101822 
	C376.138824,250.233505 376.259064,250.459824 376.167755,251.007111 
	C375.846100,251.518936 375.701569,251.678665 375.383484,251.891052 
z"/>
<path fill="#0E293C" opacity="1.000000" stroke="none" 
	d="
M230.982605,202.632263 
	C231.019501,203.109558 230.993118,203.331055 230.947754,203.886475 
	C230.401779,203.619080 229.874741,203.017761 229.680725,202.174988 
	C230.315598,202.081177 230.617477,202.228821 230.982605,202.632263 
z"/>
<path fill="#DDC2A0" opacity="1.000000" stroke="none" 
	d="
M342.858154,209.119995 
	C343.043640,208.815292 343.253784,208.476837 343.463928,208.138367 
	C343.371307,208.397461 343.278687,208.656540 343.009674,209.045975 
	C342.833282,209.176315 342.882782,209.086258 342.858154,209.119995 
z"/>
<path fill="#DDC2A0" opacity="1.000000" stroke="none" 
	d="
M345.269104,204.967377 
	C345.393005,204.604675 345.852509,204.266068 346.602051,203.845764 
	C346.921814,203.963455 346.951477,204.162827 346.964539,204.705902 
	C346.500214,205.030243 346.052429,205.010864 345.269104,204.967377 
z"/>
<path fill="#DDC2A0" opacity="1.000000" stroke="none" 
	d="
M159.001297,214.255005 
	C159.251740,214.404877 159.490875,214.840302 159.725555,215.547943 
	C159.721115,215.820190 159.332687,215.838638 159.154388,215.760956 
	C158.980713,215.302368 158.985352,214.921448 159.001297,214.255005 
z"/>
<path fill="#183245" opacity="1.000000" stroke="none" 
	d="
M388.922302,220.056122 
	C389.563171,220.153961 390.210541,220.211334 390.997253,220.570740 
	C391.173706,221.162689 391.210815,221.452637 390.809479,221.748322 
	C389.989929,221.344101 389.608795,220.934128 389.118958,220.265198 
	C389.010223,220.006241 388.928741,220.015640 388.922302,220.056122 
z"/>
<path fill="#183245" opacity="1.000000" stroke="none" 
	d="
M390.935486,221.084641 
	C391.531647,221.209503 391.926697,221.546234 392.484924,222.091309 
	C392.523376,222.441208 392.398682,222.582764 392.071960,222.922440 
	C391.479279,222.798462 391.088593,222.476379 390.534485,221.954163 
	C390.492157,221.601547 390.613251,221.449020 390.935486,221.084641 
z"/>
<path fill="#E3C6A1" opacity="1.000000" stroke="none" 
	d="
M135.353088,237.609863 
	C135.647614,237.671677 135.675705,237.881180 135.684937,237.986481 
	C135.185547,238.041580 134.676910,237.991364 133.785187,237.892334 
	C133.954254,237.745026 134.506409,237.646530 135.353088,237.609863 
z"/>
<path fill="#183245" opacity="1.000000" stroke="none" 
	d="
M170.042664,63.718899 
	C169.690308,63.822124 168.973221,64.199509 168.972046,63.143600 
	C169.353424,63.140293 169.641251,63.313004 170.042664,63.718899 
z"/>
<path fill="#DDC2A0" opacity="1.000000" stroke="none" 
	d="
M349.328613,215.142868 
	C349.421387,215.075226 349.589630,215.385010 349.589630,215.385010 
	C349.589630,215.385010 349.370453,215.660965 349.195557,215.637238 
	C349.020630,215.613495 349.235809,215.210510 349.328613,215.142868 
z"/>
<path fill="#E5C7A2" opacity="1.000000" stroke="none" 
	d="
M380.890381,243.058441 
	C380.782043,243.142136 380.632141,243.066330 380.262390,242.867462 
	C380.372345,242.526932 380.641083,242.578445 380.890381,243.058441 
z"/>
<path fill="#DDC2A0" opacity="1.000000" stroke="none" 
	d="
M347.895874,205.765076 
	C347.841125,205.909256 347.675049,205.842972 347.241669,205.754898 
	C346.974335,205.733124 346.956970,205.390930 346.952454,205.220276 
	C346.947968,205.049637 346.996796,205.005508 347.022888,204.984283 
	C347.343689,205.098648 347.588898,205.295822 347.895874,205.765076 
z"/>
<path fill="#E5C7A2" opacity="1.000000" stroke="none" 
	d="
M263.872375,211.620956 
	C263.978882,211.768143 263.517456,211.795868 263.517456,211.795868 
	C263.517456,211.795868 263.180695,211.479218 263.192200,211.248398 
	C263.417358,211.137299 263.604736,211.289368 263.872375,211.620956 
z"/>
<path fill="#0E293C" opacity="1.000000" stroke="none" 
	d="
M376.244202,251.287262 
	C375.946686,251.106995 375.937164,250.885895 375.973145,250.335999 
	C376.018616,250.007202 376.466217,249.964920 376.689331,249.937225 
	C376.912445,249.909531 377.236694,250.270172 377.381714,250.465851 
	C377.195221,250.856506 376.863739,251.051468 376.244202,251.287262 
z"/>
<path fill="#E5C7A2" opacity="1.000000" stroke="none" 
	d="
M267.770325,211.066498 
	C267.863373,211.265350 267.701141,211.483917 267.247009,211.648087 
	C267.193573,211.451324 267.380219,211.282166 267.770325,211.066498 
z"/>
<path fill="#DDC2A0" opacity="1.000000" stroke="none" 
	d="
M344.017181,205.818466 
	C343.992920,205.640030 344.217896,205.361877 344.701355,204.999985 
	C344.728668,205.183746 344.497559,205.451248 344.017181,205.818466 
z"/>
<path fill="#E3C6A1" opacity="1.000000" stroke="none" 
	d="
M302.872467,250.636292 
	C302.973083,250.735550 302.499939,250.755905 302.264343,250.732178 
	C302.241211,250.461288 302.488892,250.404144 302.872467,250.636292 
z"/>
<path fill="#183245" opacity="1.000000" stroke="none" 
	d="
M153.736877,42.140030 
	C153.906204,42.326279 153.467743,42.407032 153.467743,42.407032 
	C153.467743,42.407032 153.181396,42.094345 153.136765,41.941254 
	C153.250595,41.843372 153.409073,41.898579 153.736877,42.140030 
z"/>
<path fill="#183245" opacity="1.000000" stroke="none" 
	d="
M158.059570,45.659508 
	C157.871262,45.710899 157.541306,45.476849 157.008728,45.006512 
	C157.176697,44.971508 157.547318,45.172787 158.059570,45.659508 
z"/>
<path fill="#2E4555" opacity="1.000000" stroke="none" 
	d="
M112.366058,41.251617 
	C112.396339,41.077389 112.596588,41.020786 112.967766,41.032150 
	C112.968964,41.241253 112.768074,41.330963 112.366058,41.251617 
z"/>
<path fill="#DDC2A0" opacity="1.000000" stroke="none" 
	d="
M151.887207,215.587982 
	C151.990295,215.738708 151.505005,215.842834 151.505005,215.842834 
	C151.505005,215.842834 151.148666,215.497345 151.174652,215.250504 
	C151.423553,215.109940 151.618057,215.254471 151.887207,215.587982 
z"/>
<path fill="#DDC2A0" opacity="1.000000" stroke="none" 
	d="
M341.882812,215.578079 
	C341.988586,215.726334 341.506653,215.825607 341.506653,215.825607 
	C341.506653,215.825607 341.143616,215.493454 341.166992,215.248520 
	C341.413025,215.108429 341.608582,215.250519 341.882812,215.578079 
z"/>
<path fill="#21394B" opacity="1.000000" stroke="none" 
	d="
M157.666992,88.910217 
	C157.708908,89.094711 157.482178,89.383614 157.012436,89.811615 
	C156.979065,89.638687 157.188721,89.326660 157.666992,88.910217 
z"/>
<path fill="#E5C7A2" opacity="1.000000" stroke="none" 
	d="
M378.079590,241.141785 
	C378.157898,241.055206 378.317841,241.102966 378.726013,241.182892 
	C378.974304,241.215042 378.573975,241.427780 378.573975,241.427780 
	C378.573975,241.427780 378.161285,241.276123 378.079590,241.141785 
z"/>
<path fill="#183245" opacity="1.000000" stroke="none" 
	d="
M171.720490,65.155487 
	C171.902191,65.339279 171.458893,65.384636 171.458893,65.384636 
	C171.458893,65.384636 171.174713,65.060440 171.120163,64.912025 
	C171.223343,64.832970 171.381058,64.902336 171.720490,65.155487 
z"/>
<path fill="#E5C7A2" opacity="1.000000" stroke="none" 
	d="
M365.451813,242.790222 
	C365.203033,242.618927 365.268494,242.306396 365.706085,241.891571 
	C365.877777,242.066284 365.773712,242.352859 365.451813,242.790222 
z"/>
<path fill="#D2BC9F" opacity="1.000000" stroke="none" 
	d="
M257.885864,245.504425 
	C257.996429,245.645370 257.544281,245.733673 257.544281,245.733673 
	C257.544281,245.733673 257.180756,245.450745 257.174164,245.220459 
	C257.393860,245.076050 257.596436,245.200470 257.885864,245.504425 
z"/>
<path fill="#183245" opacity="1.000000" stroke="none" 
	d="
M150.330246,130.105957 
	C150.284729,129.922546 150.501312,129.628769 150.954346,129.192398 
	C150.991287,129.365067 150.791824,129.680344 150.330246,130.105957 
z"/>
<path fill="#E5C7A2" opacity="1.000000" stroke="none" 
	d="
M365.911072,246.865784 
	C365.673798,246.966583 365.451050,246.776947 365.325134,246.263992 
	C365.550476,246.215561 365.718353,246.427124 365.911072,246.865784 
z"/>
<path fill="#D2BC9F" opacity="1.000000" stroke="none" 
	d="
M263.933929,246.784592 
	C264.000397,247.002228 263.540558,246.832947 263.296326,246.840073 
	C263.052124,246.847198 263.200500,246.406952 263.211975,246.175018 
	C263.506500,246.080490 263.721161,246.288452 263.933929,246.784592 
z"/>
<path fill="#2E4555" opacity="1.000000" stroke="none" 
	d="
M209.109802,246.644104 
	C208.988724,246.909409 208.780258,246.920578 208.259949,246.960724 
	C207.878891,246.776596 207.809647,246.563492 207.983246,246.112396 
	C208.226074,245.874420 208.165329,245.904526 208.143814,245.925385 
	C208.422333,246.094162 208.722366,246.242065 209.109802,246.644104 
z"/>
<path fill="#2E4555" opacity="1.000000" stroke="none" 
	d="
M391.427979,244.636261 
	C391.727325,244.872696 391.859314,245.242081 391.898438,245.901672 
	C391.805603,246.191864 391.855927,246.142563 391.880096,246.124786 
	C391.620697,245.948410 391.379852,245.740356 391.065125,245.272064 
	C390.948486,245.061325 391.260620,244.769226 391.427979,244.636261 
z"/>
<path fill="#21394B" opacity="1.000000" stroke="none" 
	d="
M156.676422,89.872437 
	C156.718430,90.062180 156.489090,90.356926 156.015106,90.790573 
	C155.981995,90.612122 156.193527,90.294785 156.676422,89.872437 
z"/>
<path fill="#E3C6A1" opacity="1.000000" stroke="none" 
	d="
M134.392029,135.127258 
	C135.884125,138.932861 132.840866,140.572937 130.960236,143.888931 
	C130.218124,140.295975 127.123512,138.073059 128.840912,135.151901 
	C129.675873,133.731735 132.236618,132.944809 134.392029,135.127258 
z"/>
<path fill="#D2BC9F" opacity="1.000000" stroke="none" 
	d="
M119.224533,149.133514 
	C117.899033,146.423477 116.784889,143.880951 115.409897,141.115799 
	C115.149040,140.893173 115.098373,140.937424 115.131508,140.936554 
	C114.998978,140.820343 114.833313,140.704987 114.776657,140.307129 
	C114.548035,138.525116 112.572456,136.677750 115.956779,136.064301 
	C118.413628,135.619003 118.692535,137.068497 118.881027,138.840973 
	C119.001945,139.978027 119.201408,141.106750 119.582840,142.552475 
	C120.916870,143.754990 120.361542,144.989151 120.350449,146.505951 
	C119.405174,147.526550 122.493675,149.448761 119.224533,149.133514 
z"/>
<path fill="#E5C7A2" opacity="1.000000" stroke="none" 
	d="
M110.862808,139.647278 
	C107.386055,140.705582 104.713951,139.883865 104.036987,135.419815 
	C106.752815,135.765442 109.767563,135.953278 110.862808,139.647278 
z"/>
<path fill="#183245" opacity="1.000000" stroke="none" 
	d="
M333.406738,185.550354 
	C334.122925,184.862442 334.966431,184.758499 336.133636,185.722397 
	C335.035767,185.722397 334.293152,185.722397 333.406738,185.550354 
z"/>
<path fill="#183245" opacity="1.000000" stroke="none" 
	d="
M120.425583,146.658112 
	C120.089836,145.845627 119.943367,144.766830 119.798462,143.276901 
	C121.011642,143.823868 121.197273,145.019089 120.425583,146.658112 
z"/>
<path fill="#21394B" opacity="1.000000" stroke="none" 
	d="
M114.778564,140.146790 
	C114.885674,140.024612 115.073357,140.465210 115.119003,140.700455 
	C114.768463,140.844162 114.604065,140.621918 114.778564,140.146790 
z"/>
<path fill="#21394B" opacity="1.000000" stroke="none" 
	d="
M222.541718,213.235504 
	C222.114166,213.029953 222.114655,212.720535 222.124664,211.946411 
	C224.734528,212.267303 227.389801,211.634674 230.973358,211.194702 
	C228.057266,214.283508 225.242706,212.288498 222.541718,213.235504 
z"/>
<path fill="#EBCBA3" opacity="1.000000" stroke="none" 
	d="
M123.191757,217.662628 
	C122.858192,218.140030 122.576195,218.350113 122.148140,218.781647 
	C121.575531,219.646301 121.148972,220.289536 120.556778,221.176666 
	C119.506447,221.954956 118.621750,222.489334 117.422340,223.033417 
	C116.388168,223.744293 115.457550,223.399384 114.325241,223.673859 
	C113.266335,223.825012 112.507965,223.846405 111.385307,223.754578 
	C110.685814,223.379852 110.496262,223.037689 110.357071,222.323151 
	C110.222473,215.988861 110.183174,209.946259 110.209251,203.437775 
	C110.340736,202.798981 110.406853,202.626068 110.726425,202.339722 
	C111.752998,202.134628 112.526108,202.042969 113.684898,201.885910 
	C115.421928,201.878387 116.773277,201.936264 118.517975,201.879700 
	C119.035027,204.295502 121.328728,205.515839 122.591476,207.730530 
	C122.931885,208.278564 123.028557,208.595428 123.119812,209.166809 
	C123.118423,209.801483 123.235924,210.144791 123.581589,210.708618 
	C123.745605,212.060913 123.796860,213.155502 123.748840,214.651581 
	C123.561241,215.264908 123.472908,215.476761 123.248169,216.004715 
	C123.155617,216.678970 123.199471,217.037140 123.191757,217.662628 
z"/>
<path fill="#E3C6A1" opacity="1.000000" stroke="none" 
	d="
M114.384155,223.859985 
	C114.833107,223.540894 115.641510,223.278183 116.778763,223.029297 
	C117.107620,223.043121 116.977280,223.425293 116.949432,223.625244 
	C116.195587,223.855576 115.469604,223.885971 114.384155,223.859985 
z"/>
<path fill="#E3C6A1" opacity="1.000000" stroke="none" 
	d="
M110.186508,222.297760 
	C110.494820,222.416321 110.727867,222.801163 110.990967,223.413666 
	C110.271324,223.659271 110.181473,223.119949 110.186508,222.297760 
z"/>
<path fill="#E3C6A1" opacity="1.000000" stroke="none" 
	d="
M110.776848,202.199738 
	C110.875305,202.436127 110.735344,202.618866 110.417313,202.873199 
	C110.274628,202.971893 110.123230,202.596634 110.144020,202.395416 
	C110.164810,202.194214 110.573807,202.173157 110.776848,202.199738 
z"/>
<path fill="#E3C6A1" opacity="1.000000" stroke="none" 
	d="
M123.723274,210.672165 
	C123.530220,210.635559 123.366081,210.304825 123.168640,209.694489 
	C123.340958,209.735947 123.546577,210.056992 123.723274,210.672165 
z"/>
<path fill="#E3C6A1" opacity="1.000000" stroke="none" 
	d="
M123.307510,216.165039 
	C123.118530,216.000336 123.202293,215.701447 123.506302,215.238617 
	C123.767113,215.397232 123.718346,215.715958 123.307510,216.165039 
z"/>
</svg>